<svg xmlns="http://www.w3.org/2000/svg" viewBox="0 0 1200 900" role="img" aria-label="Clinical network monitoring">
  <defs>
    <linearGradient id="bg" x1="0" y1="0" x2="1" y2="1">
      <stop offset="0" stop-color="#082f49"/>
      <stop offset=".55" stop-color="#0f766e"/>
      <stop offset="1" stop-color="#1e3a8a"/>
    </linearGradient>
    <linearGradient id="card" x1="0" y1="0" x2="1" y2="1">
      <stop offset="0" stop-color="#ffffff" stop-opacity=".95"/>
      <stop offset="1" stop-color="#dbeafe" stop-opacity=".78"/>
    </linearGradient>
    <filter id="shadow" x="-20%" y="-20%" width="140%" height="140%">
      <feDropShadow dx="0" dy="18" stdDeviation="22" flood-color="#001525" flood-opacity=".28"/>
    </filter>
  </defs>
  <rect width="1200" height="900" fill="url(#bg)"/>
  <g opacity=".18" stroke="#bfdbfe" stroke-width="1">
    <path d="M0 130H1200M0 260H1200M0 390H1200M0 520H1200M0 650H1200M0 780H1200"/>
    <path d="M120 0V900M260 0V900M400 0V900M540 0V900M680 0V900M820 0V900M960 0V900M1100 0V900"/>
  </g>
  <g filter="url(#shadow)">
    <rect x="145" y="150" width="420" height="260" rx="28" fill="url(#card)"/>
    <rect x="650" y="128" width="380" height="210" rx="28" fill="url(#card)" opacity=".88"/>
    <rect x="520" y="500" width="430" height="230" rx="28" fill="url(#card)" opacity=".92"/>
  </g>
  <g fill="none" stroke="#93c5fd" stroke-width="9" stroke-linecap="round" opacity=".88">
    <path d="M190 310h70l28-72 55 145 42-103h120"/>
    <path d="M695 242h55l32-56 42 104 36-68h120"/>
    <path d="M570 630h70l24-54 52 104 38-78h145"/>
  </g>
  <g fill="#22c55e">
    <circle cx="230" cy="210" r="12"/>
    <circle cx="715" cy="185" r="12"/>
    <circle cx="565" cy="560" r="12"/>
  </g>
  <g fill="#ffffff" opacity=".92">
    <circle cx="1040" cy="650" r="84"/>
    <rect x="1018" y="594" width="44" height="112" rx="8" fill="#0f766e"/>
    <rect x="984" y="628" width="112" height="44" rx="8" fill="#0f766e"/>
  </g>
</svg>
